{
  "accessors": [
    {
      "bufferView": 2,
      "componentType": 5126,
      "count": 1904,
      "max": [
        2.52144718170166,
        3.7364182472229004,
        8.105424880981445
      ],
      "min": [
        -2.52144718170166,
        -3.2757396697998047,
        -3.3952834606170654
      ],
      "type": "VEC3"
    },
    {
      "bufferView": 2,
      "byteOffset": 22848,
      "componentType": 5126,
      "count": 1904,
      "max": [
        1.0,
        0.9996854662895203,
        0.9918944835662842
      ],
      "min": [
        -1.0,
        -0.9991313219070435,
        -0.9996694922447205
      ],
      "type": "VEC3"
    },
    {
      "bufferView": 1,
      "componentType": 5126,
      "count": 1904,
      "max": [
        0.75,
        0.875
      ],
      "min": [
        0.0,
        0.0
      ],
      "type": "VEC2"
    },
    {
      "bufferView": 0,
      "componentType": 5125,
      "count": 3294,
      "type": "SCALAR"
    },
    {
      "bufferView": 2,
      "byteOffset": 45696,
      "componentType": 5126,
      "count": 1604,
      "max": [
        1.911049485206604,
        2.8734381198883057,
        8.433427810668945
      ],
      "min": [
        -1.911049485206604,
        -4.885117053985596,
        -2.740734100341797
      ],
      "type": "VEC3"
    },
    {
      "bufferView": 2,
      "byteOffset": 64944,
      "componentType": 5126,
      "count": 1604,
      "max": [
        1.0,
        0.9877409934997559,
        0.9998764395713806
      ],
      "min": [
        -1.0,
        -0.9999915361404419,
        -0.9996996521949768
      ],
      "type": "VEC3"
    },
    {
      "bufferView": 1,
      "byteOffset": 15232,
      "componentType": 5126,
      "count": 1604,
      "max": [
        0.6250001192092896,
        0.875
      ],
      "min": [
        0.0,
        0.0
      ],
      "type": "VEC2"
    },
    {
      "bufferView": 0,
      "byteOffset": 13176,
      "componentType": 5125,
      "count": 2562,
      "type": "SCALAR"
    },
    {
      "bufferView": 2,
      "byteOffset": 84192,
      "componentType": 5126,
      "count": 80,
      "max": [
        0.9282859563827515,
        3.0269782543182373,
        8.46735668182373
      ],
      "min": [
        -0.9282859563827515,
        2.4673871994018555,
        7.47786283493042
      ],
      "type": "VEC3"
    },
    {
      "bufferView": 2,
      "byteOffset": 85152,
      "componentType": 5126,
      "count": 80,
      "max": [
        0.9960832595825195,
        0.9338529706001282,
        0.9861342906951904
      ],
      "min": [
        -0.9960832595825195,
        -0.16595153510570526,
        0.03718401864171028
      ],
      "type": "VEC3"
    },
    {
      "bufferView": 1,
      "byteOffset": 28064,
      "componentType": 5126,
      "count": 80,
      "max": [
        0.6250000596046448,
        0.875
      ],
      "min": [
        0.6249999403953552,
        0.7499998807907104
      ],
      "type": "VEC2"
    },
    {
      "bufferView": 0,
      "byteOffset": 23424,
      "componentType": 5125,
      "count": 156,
      "type": "SCALAR"
    },
    {
      "bufferView": 2,
      "byteOffset": 86112,
      "componentType": 5126,
      "count": 780,
      "max": [
        1.1177313327789307,
        3.0324931144714355,
        7.832887172698975
      ],
      "min": [
        -1.1177313327789307,
        1.627518892288208,
        7.013948440551758
      ],
      "type": "VEC3"
    },
    {
      "bufferView": 2,
      "byteOffset": 95472,
      "componentType": 5126,
      "count": 780,
      "max": [
        0.9654630422592163,
        0.9999033808708191,
        0.9999557733535767
      ],
      "min": [
        -0.9654630422592163,
        -0.9243363738059998,
        -0.9600896239280701
      ],
      "type": "VEC3"
    },
    {
      "bufferView": 1,
      "byteOffset": 28704,
      "componentType": 5126,
      "count": 780,
      "max": [
        0.6250000596046448,
        0.875
      ],
      "min": [
        0.0,
        0.0
      ],
      "type": "VEC2"
    },
    {
      "bufferView": 0,
      "byteOffset": 24048,
      "componentType": 5125,
      "count": 1188,
      "type": "SCALAR"
    },
    {
      "bufferView": 2,
      "byteOffset": 104832,
      "componentType": 5126,
      "count": 314,
      "max": [
        1.1177313327789307,
        2.2177727222442627,
        8.3638277053833
      ],
      "min": [
        -1.1177313327789307,
        1.5374115705490112,
        7.013948440551758
      ],
      "type": "VEC3"
    },
    {
      "bufferView": 2,
      "byteOffset": 108600,
      "componentType": 5126,
      "count": 314,
      "max": [
        0.9999975562095642,
        0.9980159401893616,
        0.9910735487937927
      ],
      "min": [
        -0.9999975562095642,
        -0.9996876120567322,
        -0.9186823964118958
      ],
      "type": "VEC3"
    },
    {
      "bufferView": 1,
      "byteOffset": 34944,
      "componentType": 5126,
      "count": 314,
      "max": [
        0.625,
        0.875
      ],
      "min": [
        0.625,
        0.75
      ],
      "type": "VEC2"
    },
    {
      "bufferView": 0,
      "byteOffset": 28800,
      "componentType": 5125,
      "count": 486,
      "type": "SCALAR"
    }
  ],
  "asset": {
    "extras": {
      "author": "toofball (https://sketchfab.com/picklecobra)",
      "license": "CC-BY-4.0 (http://creativecommons.org/licenses/by/4.0/)",
      "source": "https://sketchfab.com/3d-models/rottweiler-low-poly-d541f1198f1241d6a466dc49eca084a3",
      "title": "Rottweiler Low Poly"
    },
    "generator": "Sketchfab-15.31.0",
    "version": "2.0"
  },
  "bufferViews": [
    {
      "buffer": 0,
      "byteLength": 30744,
      "name": "floatBufferViews",
      "target": 34963
    },
    {
      "buffer": 0,
      "byteLength": 37456,
      "byteOffset": 30744,
      "byteStride": 8,
      "name": "floatBufferViews",
      "target": 34962
    },
    {
      "buffer": 0,
      "byteLength": 112368,
      "byteOffset": 68200,
      "byteStride": 12,
      "name": "floatBufferViews",
      "target": 34962
    }
  ],
  "buffers": [
    {
      "byteLength": 180568,
      "uri": "scene.bin"
    }
  ],
  "materials": [
    {
      "doubleSided": true,
      "name": "Material.001",
      "pbrMetallicRoughness": {
        "baseColorFactor": [
          0.0295568,
          0.0273209,
          0.0528607,
          1.0
        ],
        "metallicFactor": 0.0,
        "roughnessFactor": 0.5
      }
    },
    {
      "doubleSided": true,
      "name": "Material.002",
      "pbrMetallicRoughness": {
        "baseColorFactor": [
          0.323143,
          0.0722719,
          0.0331048,
          1.0
        ],
        "metallicFactor": 0.0,
        "roughnessFactor": 0.5
      }
    },
    {
      "doubleSided": true,
      "name": "Material.003",
      "pbrMetallicRoughness": {
        "baseColorFactor": [
          0.0,
          0.0,
          0.0,
          1.0
        ],
        "metallicFactor": 0.0,
        "roughnessFactor": 0.5
      }
    },
    {
      "doubleSided": true,
      "name": "Material.004",
      "pbrMetallicRoughness": {
        "baseColorFactor": [
          0.8,
          0.8,
          0.8,
          1.0
        ],
        "metallicFactor": 0.0,
        "roughnessFactor": 0.5
      }
    },
    {
      "doubleSided": true,
      "name": "Material.005",
      "pbrMetallicRoughness": {
        "baseColorFactor": [
          0.637597,
          0.0908417,
          0.187821,
          1.0
        ],
        "metallicFactor": 0.0,
        "roughnessFactor": 0.5
      }
    }
  ],
  "meshes": [
    {
      "name": "Object_0",
      "primitives": [
        {
          "attributes": {
            "NORMAL": 1,
            "POSITION": 0,
            "TEXCOORD_0": 2
          },
          "indices": 3,
          "material": 0,
          "mode": 4
        }
      ]
    },
    {
      "name": "Object_1",
      "primitives": [
        {
          "attributes": {
            "NORMAL": 5,
            "POSITION": 4,
            "TEXCOORD_0": 6
          },
          "indices": 7,
          "material": 1,
          "mode": 4
        }
      ]
    },
    {
      "name": "Object_2",
      "primitives": [
        {
          "attributes": {
            "NORMAL": 9,
            "POSITION": 8,
            "TEXCOORD_0": 10
          },
          "indices": 11,
          "material": 2,
          "mode": 4
        }
      ]
    },
    {
      "name": "Object_3",
      "primitives": [
        {
          "attributes": {
            "NORMAL": 13,
            "POSITION": 12,
            "TEXCOORD_0": 14
          },
          "indices": 15,
          "material": 3,
          "mode": 4
        }
      ]
    },
    {
      "name": "Object_4",
      "primitives": [
        {
          "attributes": {
            "NORMAL": 17,
            "POSITION": 16,
            "TEXCOORD_0": 18
          },
          "indices": 19,
          "material": 4,
          "mode": 4
        }
      ]
    }
  ],
  "nodes": [
    {
      "children": [
        1
      ],
      "matrix": [
        0.6666666865348816,
        0.0,
        0.0,
        0.0,
        0.0,
        1.4802974102831747e-16,
        -0.6666666865348816,
        0.0,
        0.0,
        0.6666666865348816,
        1.4802974102831747e-16,
        0.0,
        0.0,
        0.0,
        0.0,
        1.0
      ],
      "name": "Sketchfab_model"
    },
    {
      "children": [
        2
      ],
      "name": "root"
    },
    {
      "children": [
        3
      ],
      "matrix": [
        1.0,
        0.0,
        0.0,
        0.0,
        0.0,
        2.220446049250313e-16,
        1.0,
        0.0,
        0.0,
        -1.0,
        2.220446049250313e-16,
        0.0,
        0.0,
        0.0,
        0.0,
        1.0
      ],
      "name": "GLTF_SceneRootNode"
    },
    {
      "children": [
        4,
        5,
        6,
        7,
        8
      ],
      "matrix": [
        0.04844206944108009,
        0.0,
        0.0,
        0.0,
        0.0,
        0.18955637514591217,
        0.0,
        0.0,
        0.0,
        0.0,
        0.18955637514591217,
        0.0,
        0.0,
        0.942028284072876,
        -0.6033905744552612,
        1.0
      ],
      "name": "Cube_1"
    },
    {
      "mesh": 0,
      "name": "Object_4"
    },
    {
      "mesh": 1,
      "name": "Object_5"
    },
    {
      "mesh": 2,
      "name": "Object_6"
    },
    {
      "mesh": 3,
      "name": "Object_7"
    },
    {
      "mesh": 4,
      "name": "Object_8"
    }
  ],
  "scene": 0,
  "scenes": [
    {
      "name": "Sketchfab_Scene",
      "nodes": [
        0
      ]
    }
  ]
}
